<svg width = "1340" height = "640" xmlns = "http://www.w3.org/2000/svg">
<rect width = "1340" height = "640" fill="green" />
<rect width = "1300" height = "600" x="20" y="20" fill="green" stroke="white" stroke-width="5"/>
<circle r="100" cx="670" cy="320" fill="green" stroke="white" stroke-width="5" />
<circle r="3" cx="670" cy="320" fill="green" stroke="white" stroke-width="5" />
<line x1="670" y1="20" x2="670" y2="620" stroke="white" stroke-width="5" />
<circle r="100" cx="250" cy="320" fill="green" stroke="white" stroke-width="5" />
<circle r="100" cx="1090" cy="320" fill="green" stroke="white" stroke-width="5" />
<rect width = "250" height = "300" x="20" y="170" fill="green" stroke="white" stroke-width="5"/>
<rect width = "250" height = "300" x="1070" y="170" fill="green" stroke="white" stroke-width="5"/>
<circle r="1" cx="200" cy="320" fill="green" stroke="white" stroke-width="5" />
<circle r="1" cx="1140" cy="320" fill="green" stroke="white" stroke-width="5" />
<rect width = "100" height = "150" x="20" y="245" fill="green" stroke="white" stroke-width="5"/>
<rect width = "100" height = "150" x="1220" y="245" fill="green" stroke="white" stroke-width="5"/>
<rect width = "15" height = "80" x="5" y="280" fill="green" stroke="grey" stroke-width="5"/>
<rect width = "15" height = "80" x="1320" y="280" fill="green" stroke="grey" stroke-width="5"/>
<path d="M20,600 C 40,600 40,620 40,620" style="fill:none; stroke:white; stroke-width:5" />
<path d="M40,20 C 40,40 20,40 20,40" style="fill:none; stroke:white; stroke-width:5" />
<path d="M1320,40 C 1300,40 1300,20 1300,20" style="fill:none; stroke:white; stroke-width:5" />
<path d="M1300,620 C 1300,600 1320,600 1320,600" style="fill:none; stroke:white; stroke-width:5" />
</svg>    
